<?xml version="1.0" standalone="no"?>
<!DOCTYPE svg PUBLIC "-//W3C//DTD SVG 20010904//EN"
 "http://www.w3.org/TR/2001/REC-SVG-20010904/DTD/svg10.dtd">
<svg version="1.0" xmlns="http://www.w3.org/2000/svg"
 width="231.000000pt" height="231.000000pt" viewBox="0 0 231.000000 231.000000"
 preserveAspectRatio="xMidYMid meet">
<metadata>
Created by potrace 1.11, written by Peter Selinger 2001-2013
</metadata>
<g transform="translate(0.000000,231.000000) scale(0.100000,-0.100000)"
fill="#000000" stroke="none">
<path d="M1629 2120 c-72 -21 -117 -77 -173 -215 -20 -49 -41 -99 -45 -110 -5
-11 -17 -40 -27 -65 -9 -25 -28 -69 -41 -98 -13 -29 -23 -58 -23 -65 0 -7 -4
-17 -8 -23 -4 -5 -19 -36 -31 -69 -29 -74 -82 -199 -87 -204 -2 -2 -16 8 -31
23 -109 109 -351 97 -480 -24 -12 -11 -25 -20 -28 -20 -11 0 -82 -85 -128
-153 -109 -164 -137 -399 -64 -545 11 -24 42 -63 69 -86 65 -60 117 -72 281
-69 150 3 157 4 157 14 0 4 8 10 18 13 10 4 29 16 42 28 l23 21 16 -20 c39
-50 66 -57 210 -58 153 -2 209 10 252 51 54 52 61 135 15 183 -31 32 -22 30
-154 35 -57 2 -106 6 -108 9 -3 3 1 20 10 39 13 28 73 178 322 798 19 47 39
93 44 102 6 10 10 23 10 30 0 7 6 25 14 39 34 66 116 290 116 318 0 85 -86
146 -171 121z m-588 -1020 c36 -17 53 -51 45 -91 -3 -17 -22 -73 -42 -123 -88
-219 -87 -219 -199 -222 -76 -3 -100 8 -121 56 -27 63 6 191 73 282 75 102
162 137 244 98z"/>
</g>
</svg>
